<?xml version="1.0" encoding="utf-8"?>
<!-- Generator: Adobe Illustrator 20.1.0, SVG Export Plug-In . SVG Version: 6.00 Build 0)  -->
<svg version="1.1" id="Layer_1" xmlns="http://www.w3.org/2000/svg" xmlns:xlink="http://www.w3.org/1999/xlink" x="0px" y="0px"
	 viewBox="0 0 265.6 119.6" style="enable-background:new 0 0 265.6 119.6;" xml:space="preserve">
<style type="text/css">
	.st0{fill:none;}
	.st1{enable-background:new    ;}
</style>
<title>TE17_Logotyp_Jonatan_Vännberg</title>
<g>
	<rect x="9.6" y="7.4" width="3" height="74"/>
</g>
<g>
	<path d="M12.1,7.9v73h-2v-73L12.1,7.9 M13.1,6.9h-4v75h4V6.9z"/>
</g>
<g>
	<rect x="9.6" y="40.9" width="45.6" height="3"/>
</g>
<g>
	<path d="M54.7,41.4v2H10.1v-2H54.7 M55.7,40.4H9.1v4h46.6V40.4z"/>
</g>
<g>
	<rect x="52.2" y="7.4" width="3" height="74"/>
</g>
<g>
	<path d="M54.7,7.9v73h-2v-73L54.7,7.9 M55.7,6.9h-4v75h4V6.9z"/>
</g>
<g>
	<polygon points="6.4,1.4 13.1,6.9 9.1,6.9 	"/>
</g>
<g>
	<polygon points="58.4,1.4 51.7,6.9 55.7,6.9 	"/>
</g>
<g>
	<polygon points="58.4,87.4 51.7,81.9 55.7,81.9 	"/>
</g>
<g>
	<polygon points="6.4,87.4 13.1,81.9 9.1,81.9 	"/>
</g>
<g>
	<line class="st0" x1="6.4" y1="85.8" x2="111.6" y2="85.8"/>
</g>
<g>
	<line class="st0" x1="6.4" y1="85.8" x2="117.6" y2="85.8"/>
</g>
<g class="st1">
	<path d="M121.6,76.3c-1.1-1.1-2.1-2.1-3.5-3.7c-3.3,3-6.9,4.3-11.1,4.3c-7.4,0-11.6-4.9-11.6-10.6c0-5.2,3.1-8.7,7.4-11.1V55
		c-2-2.5-3.1-5.2-3.1-7.9c0-4.6,3.3-9.3,9.6-9.3c4.7,0,8.4,3.1,8.4,8c0,4-2.3,7.1-8.3,10.1v0.2c3.2,3.7,6.8,7.9,9.2,10.6
		c1.7-2.6,2.9-6.3,3.6-11.1h4.5c-1,6-2.6,10.7-5.4,14c2,2.1,4,4.3,6.2,6.7H121.6z M115.6,69.7c-2.2-2.5-6.5-7.1-10.7-11.9
		c-2,1.3-4.9,3.7-4.9,7.7c0,4.3,3.2,7.6,7.7,7.6C111.1,73.2,113.8,71.7,115.6,69.7z M104.1,46.7c0,2.7,1.2,4.8,2.9,6.8
		c3.8-2.2,6.3-4.2,6.3-7.4c0-2.3-1.3-4.9-4.4-4.9C105.8,41.2,104.1,43.8,104.1,46.7z"/>
</g>
<g>
	<polygon points="129.7,48.6 122.1,55.7 126.6,55.7 	"/>
</g>
<g>
	<polygon points="131.4,83.3 121.6,76.2 127.4,76.2 	"/>
</g>
<g>
	<polygon points="0,88.4 13.1,92.7 13.1,88.7 	"/>
</g>
<g>
	<rect x="13.1" y="88.7" width="221.4" height="4"/>
</g>
<g>
	<polygon points="247.6,88.4 234.5,92.7 234.5,88.7 	"/>
</g>
<g>
	<line class="st0" x1="252.5" y1="6.7" x2="265.6" y2="6.4"/>
</g>
<g>
	<path d="M208.3,87.7c-0.6,0-1.3,0-2,0l-2.1,0c-23.8,0-42.4-19.9-42.4-45.4C161.9,19,182.7,0,208.3,0v4c-23.4,0-42.4,17.2-42.4,38.4
		c0,23.2,16.8,41.4,38.4,41.4l2.1,0c12.4,0,20.6,0,24.7-4.1c2.9-2.9,4.1-8,4.1-16.5h4c0,9.7-1.6,15.7-5.3,19.4
		C228.9,87.5,220.6,87.7,208.3,87.7z"/>
</g>
<g>
	<polygon points="208.3,0 215.5,5.3 208.3,4 	"/>
</g>
<g>
	<path d="M239.3,65.6c0-0.9,0.1-1.9,0.1-2.8h-11.2v3.8h11C239.2,66.2,239.2,65.9,239.3,65.6z"/>
</g>
<g>
	<polygon points="228.1,62.8 228.1,66.5 220.7,62.8 	"/>
</g>
<g class="st1">
	<path d="M51.3,109.7c0,0,0.1-0.2,0.2-0.4l0.1-0.2c0.2-0.2,0.3-0.3,0.3-0.4s0-0.1,0-0.2c0,0,0.1,0,0.1,0c0,0,0.1,0,0.1,0
		c0,0,0.1,0.1,0.1,0.2l0.1,0.2l0,0.2l0.1,0.2l0,0.2c0.1,0.2,0.2,0.4,0.3,0.5l0.2-0.1h0c0,0,0,0,0.1,0c0,0,0.1,0.1,0.1,0.4
		c0,0.1,0.1,0.2,0.2,0.2c0.3,0.3,0.5,0.4,0.6,0.4l1,0.4l0.3,0.2c0.2,0,0.3,0,0.3,0.1c0,0,0.1,0.1,0.4,0.2c0.6,0.1,1,0.2,1.1,0.2
		l0.9,0c0.1,0,0.2,0,0.4,0c0.1,0,0.1,0,0.2,0c0.1,0,0.1,0,0.1,0l0.2,0.1c0.1,0,0.3-0.1,0.7-0.1c0,0,0.1,0,0.3,0.1c0.1,0,0.1,0,0.1,0
		c0.1,0,0.1-0.1,0.2-0.2c0,0,0.1-0.1,0.1-0.1c0,0,0.1,0,0.1,0c0,0,0.1,0,0.1,0c0,0,0.2-0.1,0.6-0.2l0.2,0l0.3-0.1
		c0.4-0.1,0.6-0.2,0.7-0.3c0.1,0,0.2-0.2,0.6-0.4c0.2-0.2,0.3-0.3,0.4-0.3c0,0,0.1-0.2,0.3-0.4l0.2-0.1l0.1-0.3
		c0.1-0.1,0.1-0.2,0.1-0.2c0,0,0-0.1,0-0.2c0,0,0.1-0.2,0.2-0.5c0-0.1,0.1-0.1,0.1-0.2c0.1,0,0.2,0,0.3-0.1c0,0,0.1-0.1,0.1-0.2l0,0
		h-0.2l0.1-0.3c-0.1-0.1-0.1-0.1-0.1-0.2c0,0,0-0.1,0.1-0.2c0-0.1,0.1-0.2,0.1-0.4c0.1-0.3,0.2-0.5,0.2-0.6c0-0.1,0-0.3,0-0.4h0.2
		v-0.1l-0.3,0c0-0.2-0.1-0.5-0.3-1l0.1-0.1l0-0.1c0.1,0,0.2,0,0.3,0c0.4,0,0.6,0,0.6-0.1c0-0.1-0.3-0.2-0.9-0.2
		c0,0.1-0.1,0.2-0.2,0.2c0,0-0.1,0-0.2-0.1c0,0-0.2-0.1-0.6-0.3c-0.1-0.1-0.2-0.1-0.3-0.2c-0.2,0-0.4-0.1-0.6-0.1l-0.2-0.1
		c-0.3-0.1-0.4-0.1-0.4-0.1c0,0,0,0,0,0v0l0,0l0,0c0,0,0,0.1,0,0.1l-0.6-0.1l-0.1,0c-0.2,0-0.3,0-0.4,0c0,0-0.1,0-0.1-0.1
		c0-0.1-0.1-0.2-0.2-0.2c0,0-0.1,0-0.2,0.1c0,0-0.1,0-0.2,0c-0.1,0-0.1,0-0.2,0c-0.1,0-0.2,0-0.2,0c-0.3,0-0.5,0-0.5,0l-0.4-0.6
		c0-0.1-0.1-0.1-0.1-0.1c-0.1,0-0.3,0.2-0.4,0.7c0-0.4-0.1-0.6-0.2-0.7c0,0-0.1,0-0.1-0.1l-0.1-0.1c-0.4,0.6-0.6,0.8-0.6,0.8
		l-0.3-0.1c-0.3,0-0.4-0.1-0.5-0.1c-0.1-0.1-0.2-0.1-0.2-0.1l-0.2,0l-0.1,0h-0.2l-0.2-0.1c-0.3-0.1-0.5-0.2-0.6-0.3
		c-0.2-0.2-0.4-0.4-0.6-0.7c-0.1-0.2-0.2-0.3-0.2-0.5c0-0.1,0-0.1,0-0.2c-0.1-0.1-0.2-0.2-0.2-0.4c0.1-0.1,0.1-0.1,0.1-0.2l0.1-0.5
		c0.1-0.3,0.2-0.4,0.2-0.4c0.2-0.3,0.4-0.5,0.7-0.7l0.3-0.2l0.4-0.3l0.3-0.1l0.3-0.1l1.2-0.5c0.3-0.1,0.5-0.2,0.6-0.3
		c0.3-0.1,0.6-0.2,0.8-0.2l1-0.3l0.3-0.1l1.4-0.1l0.6-0.1c0,0,0.1,0,0.3,0l0.4,0l0.2,0.1c0.2,0,0.5,0.1,0.9,0.2l0.1,0.3
		c-0.1,0.1-0.2,0.2-0.3,0.2c-0.1,0.1-0.1,0.1-0.1,0.1c-0.1,0.1-0.2,0.1-0.2,0.1c-0.1-0.1-0.2-0.1-0.2-0.1h-0.2L62.2,98l-0.3,0
		c0,0-0.1-0.1-0.2-0.3c-0.1-0.2-0.3-0.2-0.5-0.2c-0.2,0-0.4,0-0.5,0.1c-0.1,0.1-0.1,0.2-0.2,0.3c-0.1-0.1-0.1-0.1-0.1-0.1h-0.1
		c-0.2,0-0.4,0-0.6,0.1l-0.7,0.1l-0.6,0.2c-0.2,0-0.3-0.1-0.3-0.1c-0.1,0-0.2,0-0.3,0.1v0.2l-0.8,0.3l-0.1,0.1
		c-0.3,0-0.6,0.2-0.7,0.4c-0.1,0-0.1,0-0.2,0c-0.1,0-0.2,0.1-0.3,0.3c-0.2,0.1-0.4,0.2-0.6,0.4c-0.2,0.3-0.3,0.6-0.3,0.8
		c0,0.1,0,0.3,0.1,0.5c0,0.1,0.1,0.2,0.2,0.3c0.3,0.3,0.5,0.4,0.6,0.4l0.4,0.1c0.3,0.1,0.4,0.3,0.5,0.5c0,0,0,0,0.1,0.1
		c0.1,0,0.1,0,0.2,0c0,0,0.1,0,0.2-0.1c0,0,0,0,0.1,0c0,0,0.1,0,0.1,0c0-0.1,0-0.2,0.1-0.2c0.1,0,0.1,0,0.1,0l0.4,0l0.6,0.1l0.2,0
		c0,0,0.1,0,0.1,0c0.1,0,0.3,0,0.6,0.1l0,0.2c0.1,0,0.2,0,0.2,0c0,0,0.1,0,0.1,0c-0.1-0.1-0.1-0.1-0.1-0.1c0-0.1,0-0.1,0.1-0.1
		l0.3,0h1.8c0,0,0.1,0.1,0.1,0.1c0,0.1,0,0.1,0,0.2c0.1,0.1,0.1,0.1,0.2,0.1c0.1,0,0.1-0.1,0.2-0.2c0.1,0,0.1,0,0.2,0
		c0,0,0.1-0.1,0.4-0.2c0.1,0,0.1,0,0.2,0c0.3,0,0.6,0.1,0.7,0.1l0.3,0.1l1,0.3c0,0,0.1,0,0.1,0.1c0.1,0.1,0.1,0.1,0.2,0.1
		c0.2,0.1,0.4,0.2,0.4,0.3c0,0,0.1,0.1,0.1,0.2c0,0.1-0.1,0.2-0.1,0.2c0,0,0,0,0,0.1l0.3,0c0.1,0.2,0.2,0.5,0.2,0.8
		c0.1,0.3,0.1,0.6,0.1,0.7v0.2v0.1c0,0.2,0,0.2,0,0.3s0,0.1,0,0.1c0,0.1,0,0.2-0.1,0.4c0,0,0,0,0,0.1c0,0,0,0.1,0,0.2
		c-0.1,0.1-0.1,0.1-0.1,0.2l0,0.2c-0.1,0.3-0.2,0.5-0.3,0.6l0,0.2l-0.2,0.3l0,0c0,0,0,0.1,0,0.1c0,0,0,0.1,0,0.2
		c-0.1,0.2-0.2,0.3-0.2,0.3c-0.1,0.1-0.2,0.3-0.4,0.5l-0.3,0.4l-0.2,0.2l-0.3,0.3c-0.2,0.2-0.3,0.3-0.4,0.4c0,0.1-0.1,0.1-0.1,0.1
		l-0.1-0.1l0.1-0.1l-0.4,0.3l0.1,0.2c-0.3,0.2-0.6,0.4-1,0.6c-0.4,0.2-0.6,0.3-0.7,0.3l-0.5,0.1c-0.5,0.1-0.8,0.2-1,0.2l-0.5,0.1
		l-0.2,0h-0.3l-0.3,0c-0.2-0.1-0.3-0.1-0.3-0.1c-0.1,0-0.1,0-0.3,0c-0.1,0-0.2,0-0.3-0.1c-0.1,0.1-0.2,0.2-0.4,0.2
		c0,0-0.1,0-0.3-0.1c0,0-0.1,0-0.1,0l-0.5,0c0,0-0.1,0-0.2,0c-0.1-0.2-0.2-0.3-0.4-0.3c-0.1,0-0.1,0.1-0.2,0.2
		c-0.1,0-0.2-0.1-0.3-0.1c-0.1,0-0.2-0.1-0.4-0.1c-0.2-0.1-0.3-0.1-0.3-0.1c-0.1,0-0.2-0.1-0.3-0.1v-0.2c-0.2,0-0.2-0.1-0.2-0.1
		c0,0-0.1-0.1-0.1-0.2l-0.1,0l0,0.2c0,0-0.2-0.1-0.6-0.2l-0.9-0.8l0,0c0-0.1,0-0.1,0-0.2c0,0-0.1-0.1-0.2-0.2c0,0-0.1-0.2-0.3-0.4
		C51.5,109.9,51.4,109.8,51.3,109.7z"/>
	<path d="M67.4,104.9c0-0.1,0-0.1,0-0.1c0,0,0.1-0.1,0.1-0.1c0.1,0,0.2-0.2,0.4-0.3c0.3-0.2,0.4-0.2,0.5-0.2c0.1,0,0.2,0.1,0.3,0.2
		c0,0.1-0.1,0.1-0.1,0.2c0,0,0,0.1,0.1,0.2c0.1,0,0.3-0.2,0.7-0.4l0.2-0.1c0.2-0.1,0.3-0.1,0.3-0.1c0.2,0,0.3,0,0.4,0.1
		c0.1-0.2,0.3-0.2,0.7-0.3l1,0c0.1,0,0.1,0,0.2,0c0.1,0,0.1,0,0.1,0c0.1,0,0.2,0.1,0.3,0.2c0.1,0,0.2,0.1,0.4,0.1
		c0.3,0.1,0.5,0.2,0.6,0.4c0,0,0,0.1,0.1,0.2c0,0,0,0.1,0.1,0.2l0.3-0.1c0.2,0.2,0.3,0.4,0.4,0.5c0.1,0.3,0.2,0.6,0.2,1v0
		c0,0,0,0.1,0,0.1c0,0.1,0,0.1,0,0.1c0,0.1,0,0.2,0,0.3v0c0,0,0,0.1-0.1,0.3c-0.1,0.1-0.1,0.2-0.2,0.4l-0.2,0.4
		c-0.1,0.1-0.2,0.2-0.3,0.3l-0.3-0.1c-0.1,0.3-0.2,0.5-0.4,0.5c0,0-0.1,0-0.2,0c-0.1,0-0.2,0-0.2,0c0,0.3-0.3,0.5-1.1,0.8
		c-0.2,0.1-0.3,0.1-0.4,0.1h-0.5c0,0-0.1,0-0.1,0c-0.1,0.1-0.2,0.1-0.2,0.1c0,0-0.1,0-0.2-0.1c-0.2,0-0.4-0.1-0.6-0.1l0-0.1
		c-0.1-0.2-0.1-0.4-0.1-0.4l-0.1,0.2c-0.1,0.2-0.1,0.2-0.1,0.3c0,0-0.1,0-0.1,0h-0.1h-0.1c0,0-0.1,0-0.1,0c0,0-0.1,0-0.1,0
		c0,0-0.1,0-0.2-0.1c0,0.1-0.1,0.2-0.1,0.3c0,0.1,0,0.3,0,0.6c0,0.1,0,0.1,0,0.2c0,0.1,0,0.1-0.1,0.1l-0.2,0.1c0,0,0,0.1-0.1,0.2
		s0,0.2-0.1,0.2l-0.1,0.1c0.3,0.2,0.4,0.2,0.4,0.2s0,0,0,0.1c0,0,0,0.2,0.1,0.3c0,0.3,0,0.6,0,0.7l-0.2,0c0,0.1,0,0.1,0,0.2
		c0,0,0,0.1,0.1,0.4c0,0,0,0,0,0.1c0,0,0,0.1,0,0.1l0.1,0c0,0.2,0,0.4,0,0.5c0,0.1,0,0.3,0,0.6l0,0.2c0,0,0,0.1,0,0.1
		c-0.1,0-0.2,0-0.2,0.1l0.2,0.1c0,0.1,0,0.1,0,0.1c0,0,0,0.1,0,0.2c0,0.1,0,0.2,0,0.4c-0.1,0.1-0.2,0.1-0.2,0.2c0,0-0.1,0.1-0.1,0.2
		l-0.2,0.1c-0.2,0.1-0.4,0.2-0.5,0.2h0l-0.2-0.1c0.2-0.1,0.3-0.1,0.3-0.2s0-0.1,0.1-0.3l0.3-0.5l-0.6-0.7l0,0c0,0,0.1-0.1,0.1-0.2
		l-0.1-0.4c0-0.1,0.1-0.1,0.1-0.1C68,114.1,68,114,68,114s0-0.1-0.1-0.1c-0.1-0.1-0.1-0.1-0.1-0.1c0.3-0.1,0.5-0.2,0.5-0.3
		c0,0-0.1-0.1-0.4-0.2l0,0c0.3-0.2,0.4-0.3,0.4-0.3c0,0-0.1-0.2-0.3-0.5c-0.1-0.1-0.1-0.2-0.1-0.4c0,0,0-0.4,0.1-1L68,111l0-0.5
		c-0.2,0-0.2-0.1-0.2-0.3c0,0,0-0.2,0-0.6l0-0.4V108c0,0,0-0.1,0.1-0.2l0-0.3l0-0.1c0-0.1-0.1-0.1-0.2-0.2c0-0.1,0-0.2,0-0.3
		c0-0.1,0-0.1,0-0.2c0-0.1,0-0.2,0-0.3c0,0,0,0,0,0c0-0.2,0-0.3,0-0.3s0,0,0-0.1c0,0,0-0.1,0-0.1v0c-0.1-0.4-0.1-0.7-0.1-0.8
		C67.6,105.1,67.6,105,67.4,104.9z M68.6,106L68.6,106l0.1,0.1c0,0.1,0,0.2,0,0.3c0,0.1,0,0.1,0,0.2c0,0.1,0,0.2,0,0.2
		c0,0,0,0.1,0,0.3v0c0,0,0,0.2-0.1,0.3c0.1,0.1,0.1,0.2,0.1,0.3l0,0.4l0,0.4c0,0,0,0,0,0.1c0,0,0,0.1,0,0.2c0.1,0.1,0.2,0.1,0.2,0.1
		c0.3,0.1,0.4,0.2,0.5,0.3c0,0,0,0,0.1,0.1c0.1-0.1,0.1-0.1,0.2-0.1s0.1,0,0.2,0c0.1,0,0.1,0,0.3,0c0.2,0,0.2,0,0.3,0l0.5,0.2
		c0,0,0,0,0.1,0c0,0,0.2,0,0.6-0.1l0.3,0.3l0.2-0.1c0.2-0.1,0.3-0.2,0.4-0.2c0,0,0.1-0.1,0.2-0.2l0.3-0.2l0.3-0.3
		c0.2-0.2,0.4-0.3,0.4-0.3c0.1-0.1,0.1-0.3,0.3-0.6c0.1-0.2,0.1-0.4,0.1-0.5c0-0.1,0-0.1,0-0.2c0-0.1,0-0.2,0-0.2c0,0,0-0.1,0.1-0.2
		c-0.1-0.1-0.2-0.2-0.3-0.3c0-0.1-0.1-0.2-0.1-0.4c-0.1-0.1-0.2-0.2-0.3-0.3c-0.1-0.1-0.1-0.1-0.1-0.1c0,0,0-0.1,0-0.1
		c-0.1-0.1-0.2-0.2-0.2-0.2c0,0-0.1,0-0.3,0c-0.1-0.1-0.2-0.1-0.2-0.2c-0.2-0.1-0.3-0.2-0.4-0.2c0,0-0.1,0-0.3,0l-0.2-0.1
		c-0.1,0-0.2,0-0.4,0c-0.5,0-0.9,0-1.1,0c0,0-0.2,0.1-0.6,0.2l-0.2,0c0,0-0.1,0.1-0.2,0.1c-0.1,0-0.2,0.1-0.3,0.1
		c0,0.1-0.1,0.1-0.1,0.3c0,0,0,0.1,0,0.2c-0.2,0-0.5,0.1-0.6,0.2L68.6,106L68.6,106z"/>
	<path d="M76.4,107.7c0-0.3,0-0.6,0.1-0.8c0-0.1,0.1-0.3,0.2-0.6c0.2-0.4,0.3-0.6,0.4-0.7c0,0,0.2-0.1,0.4-0.3c0,0,0-0.1,0.1-0.2
		c0-0.1,0.1-0.1,0.1-0.1c0.1,0,0.3-0.2,0.6-0.3c0.1-0.1,0.2-0.2,0.4-0.3c0,0,0.3-0.1,0.9-0.4c0.3-0.1,0.8-0.2,1.4-0.2
		c0.1,0,0.3,0,0.5,0.1l0,0.2c0.1,0,0.1,0.1,0.2,0.1c0.1,0,0.1-0.1,0.2-0.2c0.3,0.1,0.5,0.2,0.8,0.3c0.2,0.1,0.3,0.2,0.3,0.2
		c0,0,0.1,0.1,0.2,0.3c0.1,0.2,0.3,0.2,0.5,0.3c0.1,0.2,0.2,0.4,0.2,0.5c0,0.1,0.1,0.3,0.1,0.5c0,0.2,0.1,0.4,0.1,0.6h-0.1v0.1
		l-0.2,0.2c0,0.1,0.1,0.2,0.2,0.3c0,0.2,0,0.4,0,0.5c0,0,0,0.1-0.1,0.3c-0.2,0.5-0.3,0.7-0.4,0.9c-0.3,0.3-0.5,0.5-0.8,0.6l-0.4,0.2
		l-0.4,0.2c-0.2,0.1-0.3,0.2-0.4,0.2c0,0-0.3,0-0.8,0.1l-0.5,0.1h-0.6l-0.3,0c-0.5-0.1-0.7-0.1-0.9-0.1c-0.1-0.1-0.1-0.1-0.2-0.1
		c0,0-0.1,0-0.3-0.1c-0.1,0-0.3-0.1-0.6-0.3c0,0-0.1-0.1-0.3-0.2c0-0.1-0.1-0.2-0.1-0.2c0-0.1,0-0.1-0.1-0.1c0,0-0.1,0-0.2-0.1
		c0,0,0,0-0.1-0.1c-0.1-0.2-0.2-0.4-0.2-0.5c0-0.1,0.1-0.2,0.2-0.3C76.6,107.9,76.5,107.8,76.4,107.7L76.4,107.7z M77.3,107.6
		L77.3,107.6l0.1,0.1c0.1,0,0.1-0.1,0.2-0.1c0,0.2,0.1,0.3,0.1,0.4c0,0.1,0.2,0.3,0.4,0.7c0,0,0,0,0,0c0,0,0,0.1-0.1,0.2
		c0,0.1,0.1,0.1,0.2,0.1c0.1-0.1,0.1-0.1,0.1-0.1c0,0,0.3,0.1,0.7,0.3c0.2,0.1,0.4,0.1,0.6,0.1H80l0.2,0.1c0.1,0,0.2,0,0.3,0
		c0.1,0,0.3,0,0.4-0.1c0.1,0,0.2-0.1,0.4-0.1c0.1,0,0.2-0.1,0.5-0.3c0.2-0.1,0.3-0.1,0.3-0.1c0,0,0.1-0.2,0.3-0.5l0.2-0.4
		c0.1-0.1,0.2-0.2,0.2-0.2c0,0,0-0.1,0-0.1c-0.1-0.1-0.1-0.2-0.1-0.3v0l0-0.2c0-0.2,0-0.4,0.1-0.6c0-0.1-0.1-0.3-0.1-0.5l-0.1-0.4
		c0-0.1,0-0.2,0-0.3l0,0h-0.2c-0.1-0.1-0.2-0.3-0.4-0.5c-0.1-0.1-0.2-0.2-0.2-0.2c0,0-0.1,0-0.2-0.1c-0.1,0-0.2-0.1-0.4-0.2
		c-0.1-0.2-0.1-0.3-0.3-0.3c0,0-0.1,0-0.2,0.1c-0.2,0-0.3-0.1-0.3-0.1c-0.3,0-0.4,0-0.5,0c-0.1,0-0.2,0.1-0.4,0.2l-0.2-0.1
		c-0.1,0.1-0.1,0.2-0.2,0.2l-0.3,0.2l-0.1,0.1l-0.9,0.8l-0.1,0.1c0,0.1,0,0.2,0,0.3l-0.2,0.3c-0.1,0.1-0.1,0.3-0.2,0.4
		c0,0,0,0.1,0,0.1c0,0.1-0.1,0.2-0.3,0.3c0,0,0,0.1,0.1,0.2c0.1,0.1,0.2,0.2,0.2,0.2C77.5,107.4,77.4,107.5,77.3,107.6z"/>
	<path d="M85.5,107.7c0-0.3,0-0.6,0.1-0.8c0-0.1,0.1-0.3,0.2-0.6c0.2-0.4,0.3-0.6,0.4-0.7c0,0,0.2-0.1,0.4-0.3c0,0,0-0.1,0.1-0.2
		c0-0.1,0.1-0.1,0.1-0.1c0.1,0,0.3-0.2,0.6-0.3c0.1-0.1,0.2-0.2,0.4-0.3c0,0,0.3-0.1,0.9-0.4c0.3-0.1,0.8-0.2,1.4-0.2
		c0.1,0,0.3,0,0.5,0.1l0,0.2c0.1,0,0.1,0.1,0.2,0.1c0.1,0,0.1-0.1,0.2-0.2c0.3,0.1,0.5,0.2,0.8,0.3c0.2,0.1,0.3,0.2,0.3,0.2
		c0,0,0.1,0.1,0.2,0.3c0.1,0.2,0.3,0.2,0.5,0.3c0.1,0.2,0.2,0.4,0.2,0.5c0,0.1,0.1,0.3,0.1,0.5c0,0.2,0.1,0.4,0.1,0.6h-0.1v0.1
		l-0.2,0.2c0,0.1,0.1,0.2,0.2,0.3c0,0.2,0,0.4,0,0.5c0,0,0,0.1-0.1,0.3c-0.2,0.5-0.3,0.7-0.4,0.9c-0.3,0.3-0.5,0.5-0.8,0.6l-0.4,0.2
		l-0.4,0.2c-0.2,0.1-0.3,0.2-0.4,0.2c0,0-0.3,0-0.8,0.1l-0.5,0.1h-0.6l-0.3,0c-0.5-0.1-0.7-0.1-0.9-0.1c-0.1-0.1-0.1-0.1-0.2-0.1
		c0,0-0.1,0-0.3-0.1c-0.1,0-0.3-0.1-0.6-0.3c0,0-0.1-0.1-0.3-0.2c0-0.1-0.1-0.2-0.1-0.2c0-0.1,0-0.1-0.1-0.1c0,0-0.1,0-0.2-0.1
		c0,0,0,0-0.1-0.1c-0.1-0.2-0.2-0.4-0.2-0.5c0-0.1,0.1-0.2,0.2-0.3C85.7,107.9,85.6,107.8,85.5,107.7L85.5,107.7z M86.3,107.6
		L86.3,107.6l0.1,0.1c0.1,0,0.1-0.1,0.2-0.1c0,0.2,0.1,0.3,0.1,0.4c0,0.1,0.2,0.3,0.4,0.7c0,0,0,0,0,0c0,0,0,0.1-0.1,0.2
		c0,0.1,0.1,0.1,0.2,0.1c0.1-0.1,0.1-0.1,0.1-0.1c0,0,0.3,0.1,0.7,0.3c0.2,0.1,0.4,0.1,0.6,0.1H89l0.2,0.1c0.1,0,0.2,0,0.3,0
		c0.1,0,0.3,0,0.4-0.1c0.1,0,0.2-0.1,0.4-0.1c0.1,0,0.2-0.1,0.5-0.3c0.2-0.1,0.3-0.1,0.3-0.1c0,0,0.1-0.2,0.3-0.5l0.2-0.4
		c0.1-0.1,0.2-0.2,0.2-0.2c0,0,0-0.1,0-0.1c-0.1-0.1-0.1-0.2-0.1-0.3v0l0-0.2c0-0.2,0-0.4,0.1-0.6c0-0.1-0.1-0.3-0.1-0.5l-0.1-0.4
		c0-0.1,0-0.2,0-0.3l0,0h-0.2c-0.1-0.1-0.2-0.3-0.4-0.5c-0.1-0.1-0.2-0.2-0.2-0.2c0,0-0.1,0-0.2-0.1c-0.1,0-0.2-0.1-0.4-0.2
		c-0.1-0.2-0.1-0.3-0.3-0.3c0,0-0.1,0-0.2,0.1c-0.2,0-0.3-0.1-0.3-0.1c-0.3,0-0.4,0-0.5,0c-0.1,0-0.2,0.1-0.4,0.2l-0.2-0.1
		c-0.1,0.1-0.1,0.2-0.2,0.2l-0.3,0.2l-0.1,0.1l-0.9,0.8l-0.1,0.1c0,0.1,0,0.2,0,0.3l-0.2,0.3c-0.1,0.1-0.1,0.3-0.2,0.4
		c0,0,0,0.1,0,0.1c0,0.1-0.1,0.2-0.3,0.3c0,0,0,0.1,0.1,0.2c0.1,0.1,0.2,0.2,0.2,0.2C86.6,107.4,86.5,107.5,86.3,107.6z"/>
	<path d="M94.6,97.4c0.1-0.1,0.4-0.2,0.8-0.5c0.2-0.1,0.3-0.1,0.4-0.2c0.1,0,0.1,0,0.1,0.1c0,0,0,0.1-0.1,0.4c0,0,0,0,0,0.1v0.1v0.1
		l0,1c0,0-0.1,0.1-0.4,0.2c-0.2,0.1-0.2,0.2-0.2,0.3c0,0.2,0.2,0.4,0.6,0.7l-0.2,0.1l0,0.7c0,0,0.1,0,0.1,0c0.1,0,0.1,0.1,0.1,0.1
		c0,0,0,0.1,0,0.3c0,0,0,0.1,0,0.1c0,0,0,0.2,0.1,0.4v2.2c0,0.1,0,0.2-0.1,0.4c0,0,0,0.1,0,0.1c0,0.2,0.1,0.3,0.2,0.5
		c0,0,0,0.1,0,0.2c0,0.1,0,0.1,0,0.2v0c0,0.3,0,0.4,0,0.5l0,0.1l-0.5,0.6l0.5,0.3c0,0.3-0.1,0.4-0.1,0.4c0,0.1,0,0.2,0.1,0.3
		c0.1,0,0.2-0.1,0.4-0.3l0.5-0.3l0.7-0.8l0.3-0.3l0.2-0.2l0.5-0.5c0.3-0.3,0.4-0.5,0.5-0.6c0.2-0.2,0.4-0.3,0.6-0.4
		c0.1,0.1,0.2,0.1,0.3,0.2c0,0.1,0,0.1,0,0.2c0,0.2-0.1,0.3-0.2,0.4c-0.1,0.1-0.2,0.1-0.3,0.1c-0.1,0.2-0.2,0.2-0.3,0.2
		c-0.1,0-0.2,0-0.3,0.1c0,0.1,0,0.2,0,0.2c0,0.1-0.1,0.2-0.3,0.4c-0.1,0.1-0.2,0.1-0.2,0.2c-0.1,0.1-0.1,0.1-0.2,0.1
		c0,0-0.1,0-0.2,0c0,0.1,0,0.2-0.1,0.2c0,0-0.1,0.1-0.3,0.2c-0.3,0.3-0.5,0.4-0.6,0.5c-0.1,0.1-0.1,0.1-0.1,0.2
		c0.2,0.2,0.4,0.4,0.5,0.5c0.4,0.2,0.6,0.4,0.6,0.4c0,0.1,0.1,0.2,0.1,0.2c0,0,0,0,0,0.1c0,0,0,0.1,0.1,0.1c0.2,0.1,0.3,0.2,0.3,0.2
		c0.1,0,0.2-0.1,0.2-0.1c0.5,0.2,0.8,0.3,1,0.4l0,0.2c0.1,0.1,0.2,0.1,0.2,0.1c0,0,0.1,0,0.2-0.1l0.2,0.1c0.1,0,0.2,0.1,0.2,0.1
		c0.1,0,0.1,0,0.2,0c0,0,0,0,0.1,0c0.1,0,0.1,0,0.1,0l0.3-0.1l0,0c0,0,0,0,0,0c0,0,0,0.1-0.1,0.4c-0.1,0.2-0.2,0.3-0.4,0.4
		c-0.1,0-0.2,0-0.4,0c-0.2,0.1-0.2,0.1-0.3,0.1c0,0-0.1,0-0.3-0.1c-0.3-0.1-0.5-0.1-0.6-0.2c-0.2-0.1-0.3-0.1-0.3-0.2
		c0-0.1,0-0.1,0-0.2c0,0,0-0.1,0-0.1c0-0.1-0.1-0.1-0.2-0.1c0,0,0,0,0,0c-0.2,0-0.3,0-0.3,0c0,0-0.1,0-0.2-0.1
		c-0.1-0.1-0.3-0.2-0.4-0.3l-0.4-0.4l-0.3-0.1c-0.2-0.2-0.4-0.4-0.8-0.7c-0.2-0.1-0.3-0.2-0.4-0.2c-0.1,0-0.1,0-0.1,0.1
		c0,0,0,0.1,0,0.2c0,0.1,0,0.3,0,0.8l0.1,0.7l0,0.1c0,0,0,0.1,0,0.2c-0.1,0.1-0.1,0.1-0.1,0.1c0,0-0.1,0-0.3,0.1
		c-0.2,0.1-0.4,0.1-0.6,0.2l-0.1-0.2v0c0.1-0.4,0.1-0.7,0.1-1.1l0-1.1l0.2,0l0.1-0.2c-0.1-0.1-0.2-0.2-0.2-0.3
		c0-0.1,0.1-0.3,0.2-0.5l-0.2-0.1c0.3-0.1,0.4-0.2,0.4-0.3c0-0.1,0-0.1-0.1-0.2c-0.2-0.1-0.3-0.2-0.3-0.2l0-0.1c0,0,0-0.1,0-0.2v0
		c0,0,0-0.1,0-0.3c0-0.1,0-0.2,0-0.3c0-0.1,0-0.1,0-0.3l0.2-0.2v-0.1l-0.2-0.1l-0.1-1.3l-0.1-0.5c0.2-0.1,0.2-0.3,0.2-0.3
		c0-0.1-0.1-0.2-0.2-0.3c0-0.1,0-0.1,0-0.1c-0.1-0.6-0.1-1-0.1-1c0,0,0-0.2,0.1-0.6l0-0.1c0-0.1-0.1-0.1-0.2-0.2c0,0,0-0.1,0-0.1
		s0-0.1-0.1-0.2l0-0.3c0-0.4-0.1-0.6-0.1-0.6c0,0,0-0.1,0-0.2c0-0.1,0-0.3,0-0.4c0-0.1,0-0.2,0-0.2l0,0l0.1-0.3l0,0
		C94.6,97.6,94.6,97.6,94.6,97.4z"/>
	<path d="M101.6,113.5c0.1,0.1,0.1,0.3,0.2,0.5l0.2,0.3c0.2,0.3,0.3,0.5,0.4,0.5c0.1,0,0.2,0,0.3,0l0.6,0.2c0,0,0.1,0,0.2,0
		c0.1,0,0.1,0,0.2,0c0.1,0.1,0.1,0.1,0.2,0.1c0,0,0.1,0,0.2-0.1c0.1,0,0.1,0,0.2,0c0,0,0.3-0.1,0.6-0.2l0.3-0.2
		c0.3-0.2,0.5-0.3,0.5-0.3c0,0,0.1-0.1,0.3-0.3c0-0.1,0.2-0.1,0.3-0.2c0.2-0.1,0.3-0.3,0.4-0.6c0.1-0.4,0.2-0.6,0.2-0.6
		c0,0,0.1-0.1,0.2-0.2c0-0.2,0-0.3,0-0.3c0,0,0.1-0.3,0.2-0.8c0,0,0-0.1,0-0.1c0,0,0-0.1,0-0.3c0-0.1,0.1-0.3,0.1-0.5
		c0.1-0.2,0.1-0.3,0.1-0.4c0,0,0-0.2-0.1-0.4c0,0,0-0.3-0.1-0.8c0-0.1,0-0.2,0-0.2c0-0.1,0-0.2,0-0.3c0-0.1,0.1-0.1,0.1-0.1
		c0,0,0-0.1,0-0.1c0,0-0.1,0-0.1,0c0,0-0.2,0.1-0.4,0.2l-0.2,0.2l-0.2,0.1l-0.2,0.2L106,109l-0.3,0.3l-0.1,0.1
		c-0.4,0.3-0.6,0.4-0.6,0.4c0,0-0.2,0-0.4,0.1c-0.2,0.1-0.4,0.1-0.6,0.1c-0.1,0-0.3-0.1-0.7-0.2c-0.2-0.1-0.4-0.2-0.6-0.5
		c0,0-0.1-0.1-0.1-0.3c0-0.1-0.1-0.2-0.1-0.2c0-0.1,0.1-0.1,0.2-0.2c-0.1-0.1-0.2-0.3-0.2-0.5c0-0.1,0.1-0.3,0.3-0.7l-0.1-0.2v0
		l0-0.2c0-0.2,0.1-0.5,0.2-1v-0.3c0.1-0.4,0.1-0.6,0.1-0.6c0,0,0-0.1-0.1-0.2h-0.2l-0.1-0.1v-0.1c0.1-0.1,0.2-0.2,0.2-0.3l0.5-0.2
		c0.4-0.3,0.6-0.4,0.7-0.4c0.1,0,0.1,0,0.2,0.1c0.1,0.1,0.1,0.1,0.1,0.2c0,0,0,0.1-0.1,0.3c-0.1,0.1-0.1,0.3-0.1,0.6l-0.2,0.8
		c0,0.3,0,0.4-0.1,0.5c0,0.1-0.1,0.1-0.3,0.1c-0.1,0.1-0.1,0.2-0.1,0.2c0,0.1,0.1,0.1,0.3,0.1c0,0.1,0,0.2,0,0.4l-0.1,0.5
		c0,0.1,0,0.3-0.1,0.5c0,0.1,0,0.2,0,0.2c0,0,0,0.1,0.1,0.3c0.1,0.2,0.1,0.2,0.2,0.3c0,0,0.2,0.1,0.4,0.2c0.1,0.1,0.2,0.2,0.3,0.2
		c0.1,0,0.2-0.1,0.3-0.2c0.3,0,0.5-0.1,0.6-0.1c0.1,0,0.4-0.2,0.9-0.6l0.4-0.4l0.4-0.3l0.3-0.7c0,0,0.1-0.1,0.1-0.2
		c0-0.1,0-0.2,0-0.2c0-0.1,0-0.1,0-0.1c0,0,0-0.1,0.1-0.1l0-0.2l0-0.2l-0.1-0.3l0-0.6l0-0.2l-0.1-0.3c-0.1-0.2-0.2-0.4-0.2-0.4
		c0-0.1,0.1-0.2,0.3-0.2l0.2-0.2h0.1c0.1,0,0.2,0,0.3,0c0.1,0,0.2,0,0.3,0c0.1,0.2,0.1,0.2,0.1,0.2l-0.7,0.3l0.5,0.2
		c0.1,0,0.1,0.1,0.1,0.2c0,0.1-0.1,0.2-0.2,0.3c-0.1,0.1-0.2,0.2-0.3,0.3l0,0c0,0,0.1,0.1,0.4,0.2c0.1,0.1,0.2,0.2,0.2,0.3
		c0,0,0,0.1,0,0.2l0,0.5c-0.1,0.2-0.1,0.3-0.1,0.3c0,0.2,0.1,0.3,0.2,0.5c0,0.2,0,0.3,0,0.4l0,0.4v0c0,0,0,0.1-0.1,0.4
		c-0.1,0.1-0.1,0.2-0.1,0.3c0,0,0,0.1,0,0.1l0.2,0.1c0,0.2-0.1,0.4-0.1,0.4c0,0,0,0.1,0,0.1c0,0.2,0,0.3,0,0.3c0,0,0,0.1-0.1,0.2
		v0.2l0,0.2l0,0.3l-0.1,0.3l-0.1,0.3c-0.1,0.1-0.1,0.2-0.1,0.3c0,0,0,0.1,0,0.1c0,0.1,0,0.2,0,0.2c0,0,0,0.1-0.1,0.3
		c0,0.1-0.1,0.2-0.2,0.4c0,0-0.1,0.1-0.2,0.2c0,0-0.1,0.1-0.2,0.3l-0.1,0.2l-0.1,0.1c-0.2,0.4-0.4,0.6-0.5,0.7
		c-0.1,0.1-0.2,0.1-0.3,0.2l-0.2,0.2l-0.2,0.1l-0.1,0.1l-0.3,0.1l-0.2,0.1l-0.2,0.1l-0.5,0.2l-0.3,0.1c-0.3,0.1-0.4,0.1-0.5,0.1
		c0,0-0.2,0-0.5-0.1c-0.5,0-0.9-0.2-1.2-0.5l-0.2,0c0-0.1-0.1-0.2-0.1-0.2c0,0-0.1-0.1-0.3-0.1c0,0-0.1-0.1-0.1-0.1
		c-0.1-0.1-0.1-0.2-0.1-0.3c0-0.1,0-0.3,0.1-0.5C101.4,113.6,101.5,113.5,101.6,113.5C101.6,113.5,101.6,113.5,101.6,113.5z"/>
	<path d="M112.9,112.1c0-0.1,0.1-0.1,0.1-0.1l0.2-0.1c0.1,0,0.2-0.2,0.3-0.4c0,0,0.1-0.1,0.2-0.1c0.1,0,0.1-0.1,0.1-0.2
		c0,0,0-0.1,0-0.1c0-0.1,0.1-0.2,0.2-0.4c0.2-0.2,0.3-0.3,0.4-0.4l0.4-0.8c0,0,0.1,0,0.1,0l0,0c0-0.1,0-0.1,0-0.1c0-0.1,0-0.1,0-0.1
		l0.2-0.3l0.8-1.2l0-0.1c0,0-0.1,0-0.1,0c0,0,0,0-0.1,0c0,0,0,0-0.1,0c0,0-0.1,0-0.1,0c0-0.1,0-0.2,0-0.2c0,0,0-0.1,0.1-0.2
		c0-0.1,0.1-0.2,0.1-0.3c0.1-0.1,0.1-0.2,0.2-0.3c0.1,0,0.2,0,0.2,0l0.3,0.1l0,0c0-0.1,0-0.1,0-0.1c0,0,0-0.1,0-0.2
		c0.1-0.1,0.1-0.1,0.2-0.1l0.2-0.3c0-0.1,0.1-0.2,0.3-0.3c0-0.1,0-0.2,0.1-0.2c0,0,0.1-0.1,0.3-0.3c0,0,0.1-0.2,0.2-0.4
		c0-0.1,0.2-0.3,0.4-0.7l0.5-1l0.2-0.2c0-0.1,0-0.1,0-0.2c0,0,0.1-0.1,0.2-0.3c0,0,0,0,0-0.1c0,0,0-0.1,0-0.1c0,0,0.1-0.1,0.1-0.2
		c0-0.1,0.1-0.2,0.1-0.3l0.2,0.2c0-0.1,0-0.1,0-0.1c0,0,0-0.1-0.1-0.2c0.1-0.1,0.1-0.2,0.1-0.2c0.1-0.1,0.1-0.2,0.1-0.3
		c0,0,0-0.1,0-0.2c0,0,0-0.1,0.1-0.2c0,0,0.1-0.2,0.2-0.4c0,0,0-0.1,0.1-0.2l0.3,0l0-0.1l-0.2-0.1v-0.1c0.1-0.1,0.1-0.1,0.2-0.2
		l-0.1-0.1v0c0.1-0.1,0.2-0.2,0.2-0.3c0.1-0.1,0.1-0.2,0.2-0.3c0-0.1-0.1-0.1-0.1-0.2v-0.1v-0.1v-0.2l0.6-0.4l0.1,0.1
		c0.1-0.1,0.1-0.2,0.1-0.2c0-0.1,0.1-0.1,0.1-0.1c0,0,0.1,0,0.1,0c0-0.1,0.1-0.2,0.2-0.2c0.1-0.1,0.2-0.1,0.3-0.1
		c0.2,0,0.2,0.2,0.3,0.6c0.1,0.3,0.1,0.4,0.1,0.5c0,0.2,0.1,0.3,0.2,0.5c0.1,0.3,0.1,0.4,0.1,0.5c0,0.1,0,0.1,0,0.2l-0.3,0.2
		c0,0.1,0.1,0.2,0.1,0.2c0,0,0.1,0,0.4,0.1c0.1,0,0.2,0.2,0.3,0.5c0.1,0.2,0.1,0.3,0.1,0.4c0,0,0,0.1-0.1,0.2
		c0.1,0.1,0.1,0.1,0.2,0.2c0.1,0.1,0.2,0.2,0.2,0.2l0.1,0.2l0.2,0.4c0,0,0,0.1,0,0.3c0.2,0.2,0.3,0.3,0.3,0.5c0,0.1,0,0.2,0,0.2
		l0.2,0.3c0,0,0.1,0.3,0.3,0.7l-0.2,0.1c0,0.1,0.1,0.2,0.1,0.2l0.1,0l0,0.2c0.5,0.5,0.8,1,0.8,1.5c0,0.1,0.1,0.4,0.3,0.7
		c0.3,0.5,0.4,0.8,0.5,0.9c0,0.1,0.1,0.2,0.2,0.3l0.5,1.1l0,0.2c0.3,0.2,0.5,0.3,0.5,0.5c0,0.1-0.1,0.1-0.2,0.2
		c0,0.1,0.1,0.1,0.1,0.2c0,0,0.1,0,0.2,0.1c0.1,0,0.2,0.1,0.2,0.3c0,0.1,0.1,0.3,0.2,0.6c0.2,0.3,0.4,0.6,0.4,0.7
		c-0.1,0.1-0.1,0.2-0.1,0.3c0,0,0,0.1,0,0.1c-0.2,0.1-0.3,0.1-0.4,0.1c0,0-0.1,0-0.3,0c-0.1,0-0.3,0.1-0.5,0.2
		c-0.1-0.3-0.2-0.5-0.2-0.7c0-0.1-0.1-0.2-0.1-0.4c-0.1-0.4-0.2-0.6-0.2-0.6c0,0,0-0.1,0-0.1c-0.1-0.1-0.1-0.2-0.2-0.2
		c0,0,0-0.1,0-0.2c0-0.1,0-0.1,0-0.1c0-0.1,0-0.1,0.1-0.3l-0.2-0.2c0.1-0.1,0.1-0.1,0.1-0.2c0.1,0,0.1-0.1,0.1-0.1s0-0.1,0-0.1
		l-0.4,0c-0.1-0.2-0.2-0.3-0.3-0.4c0-0.1-0.1-0.2-0.1-0.5l-0.1-0.3c-0.1-0.3-0.1-0.5-0.1-0.6c-0.1-0.2-0.2-0.3-0.4-0.3
		c-0.2,0-0.3,0.2-0.3,0.6c0,0-0.1,0-0.1,0c-0.1,0-0.1,0-0.2-0.1c-0.2-0.1-0.3-0.2-0.5-0.2c-0.1,0-0.2,0-0.3-0.1
		c-0.2-0.1-0.3-0.1-0.5-0.1c0,0-0.2,0-0.4,0.1l-0.2,0l-0.3,0H122l-0.2,0l-0.4,0c-0.2,0-0.3,0-0.3,0l-0.1,0l-0.5-0.1l-0.2,0
		c-0.2,0-0.3-0.1-0.3-0.1c0,0-0.2,0-0.4,0.1c-0.2,0-0.3,0.1-0.4,0.1l-0.2-0.3c-0.2,0-0.3,0.1-0.5,0.2c0,0-0.1,0-0.3,0.1
		c-0.1,0-0.1,0-0.1,0c-0.1,0-0.1,0-0.2,0c-0.1,0-0.2,0-0.3,0c-0.1,0-0.2,0-0.4,0.1c-0.1,0-0.2,0.1-0.3,0.1c-0.1,0.1-0.1,0.2-0.1,0.2
		c-0.1,0.2-0.2,0.3-0.3,0.5c-0.1,0.1-0.2,0.3-0.4,0.6l-0.1,0c0,0-0.1,0.1-0.1,0.1c0,0,0,0.1,0,0.2c0,0,0,0.1,0,0.1
		c-0.1,0.1-0.2,0.2-0.2,0.2l-0.4,0.8c-0.1,0.1-0.1,0.2-0.2,0.4l-0.1,0.1l-0.4,0.3c0,0,0,0,0,0.1c0,0.1,0.1,0.1,0.2,0.2l-0.1,0.4
		c-0.1,0-0.2,0.1-0.3,0.1c-0.1,0.1-0.1,0.2-0.2,0.3c-0.2,0.1-0.2,0.1-0.3,0.1c-0.1,0.1-0.1,0.1-0.2,0.1c0,0-0.1,0-0.2-0.1
		c0,0-0.1,0-0.1,0c0,0-0.1,0-0.1,0C113.1,112.2,113,112.1,112.9,112.1z M117.2,106.7c0.1-0.1,0.2-0.1,0.2-0.1c0,0,0.1,0,0.2,0.1
		l0.2,0l0.1,0.2c0.1,0,0.3-0.1,0.4-0.1h0.7c0.1,0,0.3,0,0.5,0.1c0.2,0,0.4,0,0.5,0.1c0.1,0.2,0.2,0.2,0.4,0.2l0.5-0.2l0.3,0.1h0.4
		l0.2,0l0.2,0l0.2,0l0.2,0l0.2,0.1l0.5-0.1l0.4,0l0.7-0.1l0.6,0c0.1,0,0.1,0,0.1-0.1c0,0,0-0.1-0.1-0.3c0,0,0-0.1,0-0.2
		c-0.1-0.1-0.2-0.1-0.2-0.2c-0.2-0.4-0.3-0.6-0.3-0.6c-0.1-0.1-0.1-0.2-0.1-0.3c0-0.1-0.1-0.2-0.1-0.3c0-0.1,0-0.3,0-0.3
		c0-0.1,0-0.1-0.1-0.3l-0.3,0c-0.1-0.1-0.1-0.2-0.1-0.2l-0.1-0.2l-0.2-0.2l-0.2-0.3l-0.1-0.1c0-0.2-0.1-0.4-0.2-0.6
		c-0.1-0.1-0.1-0.2-0.1-0.3l0.2-0.1c-0.1-0.1-0.1-0.1-0.2-0.1c0,0-0.1,0-0.1,0c-0.1-0.1-0.1-0.2-0.1-0.2c-0.1-0.2-0.2-0.3-0.2-0.3
		l0-0.3l-0.1-0.2l-0.1-0.3l-0.3-0.3l-0.1-0.5l-0.1-0.2c-0.1-0.1-0.1-0.3-0.2-0.4c-0.1,0.1-0.2,0.2-0.3,0.3c-0.1,0.2-0.1,0.3-0.1,0.5
		h0c-0.1,0.2-0.2,0.3-0.3,0.5l-0.5,0.9c-0.1,0.1-0.1,0.3-0.2,0.4c-0.1,0.1-0.2,0.1-0.2,0.2c-0.1,0.2-0.2,0.4-0.4,0.4l0,0.2l-0.1,0.1
		h0c-0.1,0-0.2,0-0.3,0l-0.1,0.1l0.2,0.1c-0.1,0.2-0.2,0.4-0.3,0.6c-0.2,0.5-0.5,0.8-0.7,0.9c-0.1,0-0.1,0.1-0.1,0.3
		c0,0.1,0,0.2-0.1,0.3l-0.2,0.4l-0.2,0.2l-0.1,0.2c-0.1,0.2-0.2,0.3-0.2,0.4C117.2,106.5,117.2,106.6,117.2,106.7z"/>
	<path d="M130,105.7l0.3,0.1l0.1-0.1l-0.1-0.4c0.1-0.1,0.2-0.1,0.2-0.1c0,0,0.2-0.2,0.4-0.4l0.2-0.1c0.1-0.1,0.2-0.1,0.2-0.1
		c0,0,0.1,0,0.3,0l0.1,0.1c0.1-0.1,0.2-0.1,0.4-0.2v-0.2c0,0,0.2-0.1,0.4-0.2l0.4-0.1l0.3,0c0.1,0,0.2-0.1,0.2-0.1
		c0,0,0.1,0,0.2,0.1c0.2,0.1,0.3,0.2,0.3,0.2l0.2-0.2c0.2,0,0.3,0.1,0.3,0.1c0.3,0.1,0.5,0.1,0.5,0.1l0.2,0.1c0,0,0,0,0.1,0
		c0.1,0,0.2,0,0.3-0.1c-0.1-0.1-0.1-0.2-0.1-0.2l0-0.5l0-0.2c0.3-0.2,0.5-0.3,0.5-0.4c0,0-0.1-0.2-0.3-0.3c-0.1-0.1-0.2-0.4-0.2-0.7
		l0.2-0.1c0-0.1-0.1-0.2-0.1-0.3c-0.1-0.2-0.1-0.4-0.1-0.5l0-0.2c0-0.2,0-0.4,0-0.6c0-0.1,0-0.2,0.1-0.4l-0.1-0.4c0,0,0-0.1,0-0.1
		l0.1-0.1c0-0.1-0.1-0.1-0.1-0.1c0,0-0.1,0-0.2,0l0,0l0,0l0.6-0.4l-0.2-0.2l-0.1-0.4c0-0.1-0.1-0.2-0.3-0.2
		c-0.3-0.1-0.4-0.2-0.4-0.2c0,0,0-0.1,0.1-0.1c0,0,0.2-0.1,0.6-0.2c0.1-0.1,0.3-0.2,0.8-0.3c0,0.1,0.1,0.2,0.1,0.4l0,0.1v0
		c0,0,0,0.1-0.1,0.3v0.2l0,0.1v0.3v0.2v0.3c0,0,0,0.1,0,0.2c0,0.2-0.1,0.2-0.1,0.2l0,0.6l-0.2,0.3c0,0.2,0.1,0.3,0.2,0.5l-0.1,0.3
		l0,0.2c0,0.1-0.1,0.2-0.1,0.2c0,0.1,0,0.2,0.1,0.3c0,0.1,0,0.1,0,0.1c0,0,0,0.1,0,0.1l-0.2,0c-0.1,0.1-0.1,0.2-0.1,0.3
		c0,0,0,0.1,0,0.1c0.2,0.1,0.3,0.2,0.3,0.3c0,0,0,0.2,0,0.5c0,0,0,0,0,0.1c0,0.1,0,0.3,0,0.4c0,0.1,0,0.1,0,0.1c0,0,0,0,0,0l0,0.1
		l0,0.2c-0.1,0.1-0.1,0.2-0.1,0.2l0,0.4l0,0.1l0,0.5l0.1,0.5l0,0.2l0,0.4l0,0.4l0.1,0.7l0,0.3c0.1,0.3,0.1,0.5,0.1,0.6
		c0,0.1,0,0.2,0,0.3c0.1,0.1,0.1,0.2,0.1,0.3c0,0,0,0.1,0,0.1c-0.1,0-0.2,0.1-0.6,0.1c-0.2,0.1-0.4,0.1-0.6,0.1l-0.1-0.1
		c-0.1,0.1-0.3,0.2-0.4,0.2c0,0-0.3,0.1-0.7,0.1c-0.6,0.1-1,0.2-1.2,0.2c-0.4,0.1-0.6,0.1-0.7,0.1c-0.5,0-0.9,0-1.1-0.1l-0.1-0.2
		c-0.2,0.1-0.2,0.1-0.3,0.1c0,0-0.1,0-0.1-0.1c0,0,0-0.1,0-0.1c0,0,0-0.1-0.1-0.1c-0.1,0-0.2,0.1-0.2,0.1c-0.1,0-0.1,0-0.2-0.1
		c-0.2-0.2-0.4-0.3-0.5-0.4c0-0.1,0-0.1,0-0.2c0-0.1,0-0.2-0.1-0.3c-0.1-0.1-0.2-0.2-0.2-0.2l0-0.1c-0.1-0.4-0.1-0.6-0.1-0.6
		c0-0.1,0-0.2,0-0.3c0-0.1,0-0.2,0-0.4l0.1-0.2c0.2-0.5,0.3-0.8,0.4-0.8C129.8,105.8,129.9,105.8,130,105.7z M130.5,108.2
		c0.1,0.1,0.2,0.1,0.2,0.1l0.1,0.2c0.1,0.2,0.2,0.3,0.3,0.4c0,0,0.1,0.1,0.3,0.3l0.2,0.2l0.2,0.1c0.2,0.1,0.3,0.2,0.3,0.2
		c0.1,0,0.2-0.1,0.2-0.4c0.2,0.1,0.4,0.2,0.5,0.2l0.7,0h0.3l0.7-0.2c0.3,0,0.4-0.1,0.5-0.1c0.1-0.2,0.2-0.3,0.3-0.4
		c0-0.1-0.1-0.1-0.1-0.2l0-0.2v-0.6l0-0.5c0-0.1-0.1-0.3-0.1-0.4l0.3-0.1c0-0.1,0-0.2,0-0.2c0,0,0-0.1,0-0.2l-0.2,0l0.5-0.4
		l-0.5-0.5l0-0.2c0,0,0,0-0.1-0.1v-0.3c-0.1,0-0.1-0.1-0.2-0.1c0,0-0.1,0-0.2,0.1c0,0,0,0-0.1,0c-0.2,0-0.3,0-0.3-0.1l-0.3-0.3
		l-0.5-0.2l-0.3-0.2c-0.2,0.3-0.3,0.4-0.3,0.4h0h-0.1c-0.1,0-0.2,0-0.4,0.1l-0.2,0c-0.1,0-0.3,0.1-0.4,0.3l-0.3,0
		c-0.1,0.1-0.1,0.2-0.2,0.2l-0.3,0.1c-0.2,0.2-0.3,0.3-0.3,0.5c-0.2,0.1-0.3,0.2-0.4,0.4l-0.2,0.3c0,0.1,0,0.2,0,0.4
		c0,0.1,0,0.2,0.1,0.3l0,0.2l0.1,0.2l0.1,0.2c0.1,0.2,0.1,0.3,0.1,0.3S130.5,108.2,130.5,108.2z"/>
	<path d="M137.7,104.7c0.1-0.1,0.1-0.2,0.1-0.2s0.1-0.1,0.3-0.2c0.1-0.1,0.2-0.1,0.2-0.2l0.1-0.1c0.2,0,0.3,0,0.3,0.1
		c0,0,0.1,0.3,0.3,0.6l0,0.2l0.1,0.3c0,0.1,0,0.2,0.1,0.2c0,0,0.1,0.1,0.2,0.1c0,0.2,0.1,0.3,0.1,0.3c0.1,0.2,0.1,0.3,0.1,0.4
		c0,0.1,0,0.1,0,0.2c0.1,0.1,0.1,0.1,0.1,0.1l0.1,0.3l0.1,0.2c0.1,0.2,0.2,0.3,0.3,0.5l-0.1,0.3c0.1,0.1,0.2,0.1,0.2,0.2
		c0,0,0.1,0.1,0.1,0.2l0.2,0.3c0.1,0.1,0.1,0.2,0.1,0.2c0,0,0.1,0,0.1,0c0.1,0,0.1-0.1,0.2-0.2c0-0.1,0.2-0.3,0.3-0.6l0.1-0.2
		l0.1-0.2c0.1-0.3,0.2-0.4,0.2-0.6c0.1,0,0.2-0.1,0.3-0.1c0-0.2-0.1-0.3-0.1-0.3c0-0.1,0.1-0.3,0.3-0.7c0,0,0-0.1,0-0.2
		c0-0.1,0-0.1,0-0.3c0.1-0.2,0.2-0.3,0.2-0.4c0-0.1,0.1-0.2,0.1-0.4c0-0.1,0.1-0.2,0.3-0.3c0.1,0,0.3-0.1,0.5-0.1l0.1,0.1
		c0,0.1-0.1,0.3-0.2,0.6c-0.1,0.2-0.2,0.4-0.2,0.5c0,0.1-0.1,0.3-0.2,0.4c-0.1,0.1-0.1,0.1-0.1,0.2l-0.4,1c0,0.1-0.1,0.2-0.1,0.3
		c-0.1,0.1-0.1,0.2-0.1,0.2l-0.1,0.2l-0.1,0.2c-0.3,0.5-0.4,0.8-0.5,0.9l-0.2,0.5c0,0-0.1,0.1-0.2,0.1l0.1,0.3
		c-0.1,0.1-0.2,0.1-0.2,0.1c-0.2,0.1-0.3,0.2-0.5,0.3c-0.1,0.1-0.1,0.1-0.1,0.1s-0.1,0-0.1,0c-0.1,0-0.1-0.1-0.1-0.2
		c0-0.1,0-0.2-0.1-0.3c-0.1-0.1-0.2-0.1-0.2-0.2l-0.1-0.2l-0.2-0.3l-0.2-0.4l-0.1-0.2c0,0,0-0.1,0-0.3c0-0.1,0-0.1,0-0.1
		c0,0-0.1-0.1-0.2-0.1v0c0.1-0.1,0.1-0.1,0.1-0.2c0-0.1-0.1-0.2-0.2-0.3c0,0-0.1,0-0.3,0c0-0.2-0.1-0.3-0.1-0.3
		c-0.1-0.2-0.1-0.3-0.1-0.4c0,0,0,0,0-0.1c0-0.1,0-0.1,0-0.2c-0.1-0.1-0.2-0.1-0.2-0.1c-0.1-0.1-0.3-0.2-0.4-0.4
		C137.9,105.1,137.8,104.8,137.7,104.7z"/>
	<path d="M149.4,104.1l0.3-0.2c0.1,0.1,0.1,0.2,0.2,0.2c0,0,0.1,0,0.2,0.1c0.1,0,0.3,0.2,0.7,0.7c0.1,0.1,0.2,0.3,0.3,0.4
		c0,0.1,0.1,0.2,0.1,0.4c0,0.1,0.1,0.2,0.1,0.3l-0.1,0.1c-0.1,0-0.1,0-0.2-0.1l-0.3,0.1l-0.3,0l-0.2,0.1c-0.3-0.2-0.5-0.3-0.5-0.3
		c0,0-0.2,0.1-0.4,0.3c-0.3-0.1-0.5-0.1-0.5-0.1c-0.1,0-0.2,0-0.3,0l0,0c-0.1,0-0.3,0-0.7,0l-0.3,0l-0.4,0l-0.4,0.1l-0.3,0
		c-0.3,0.1-0.5,0.1-0.6,0.2c0,0.2-0.1,0.3-0.1,0.4c0,0.1-0.1,0.2-0.2,0.3c0.2,0.1,0.3,0.2,0.3,0.2c0.1,0.3,0.1,0.6,0.1,0.7l0.1,0.1
		l0,0.3l0.2,0.1c0.1,0.2,0.1,0.4,0.2,0.4c0.1,0.1,0.2,0.1,0.4,0.1c0,0.2,0.1,0.3,0.1,0.3c0,0,0.1,0.1,0.3,0.1l0.1,0.2
		c0.1,0,0.1,0,0.1,0c0,0,0.2,0.1,0.5,0.2c0.1,0,0.1,0,0.2,0c0.1,0,0.2,0,0.4-0.1l0.5-0.1l0.4-0.1c0.2,0,0.3,0,0.4,0
		c0.1,0,0.3-0.1,0.5-0.3c0.2-0.1,0.4-0.2,0.4-0.3c0.1-0.1,0.2-0.2,0.3-0.4c0-0.1,0.1-0.1,0.2-0.1c0,0,0.1,0,0.2,0.1
		c0,0.2-0.1,0.3-0.1,0.4c-0.2,0.4-0.4,0.6-0.4,0.7c-0.1,0-0.1,0-0.2,0c0,0-0.1,0.1-0.3,0.2c-0.1,0.1-0.2,0.1-0.4,0.1
		c-0.3,0.1-0.5,0.1-0.7,0.2c-0.2,0-0.3,0-0.4,0.1c-0.2,0.1-0.2,0.1-0.3,0.1l-0.5-0.1l-0.3,0l-0.1,0c-0.1,0-0.2,0-0.3,0
		s-0.3,0-0.6-0.1l-0.1,0l-0.2-0.1c-0.4-0.1-0.6-0.2-0.6-0.2c0,0-0.1-0.1-0.3-0.2c0,0-0.1-0.1-0.3-0.2c-0.1-0.1-0.2-0.2-0.2-0.2
		l-0.1-0.3c0,0-0.1-0.1-0.3-0.3c0.1-0.1,0.1-0.1,0.1-0.2c0,0-0.1-0.2-0.2-0.4c0-0.1-0.1-0.3-0.1-0.7c0-0.1,0-0.3,0.1-0.6
		c0.1-0.2,0.1-0.3,0.1-0.4l0.3-0.3l0.2-0.4c0.2-0.2,0.4-0.4,0.6-0.6l0.6-0.4l0.6-0.4l0.2,0l0.6-0.2l0.4,0c0.3-0.1,0.5-0.2,0.5-0.2
		C149.1,103.7,149.3,103.9,149.4,104.1z M148.5,105.3l0.1,0.2c0.1,0,0.2,0,0.2,0c0.1,0,0.3-0.1,0.4-0.1l0.4,0c0,0,0,0,0-0.1
		c0,0,0-0.1,0-0.1c0,0,0-0.1-0.1-0.2c0,0,0,0-0.1-0.1c-0.1-0.2-0.2-0.2-0.2-0.2l-0.3-0.1c0,0-0.1-0.1-0.1-0.2c-0.2,0-0.4,0-0.8,0
		l-0.2,0l-0.3,0.2c0,0-0.2,0-0.4,0.1c-0.2,0.1-0.4,0.2-0.6,0.2c0,0-0.1,0.1-0.3,0.3c0,0-0.1,0.1-0.2,0.1v0l0,0l0.6,0.2l0.2,0.2
		l0.3-0.4c0,0,0.1,0,0.1,0c0,0,0.1,0,0.4,0.1c0,0,0,0,0,0c0.1,0,0.2,0,0.4-0.1C148.3,105.3,148.4,105.3,148.5,105.3z"/>
	<path d="M153.2,104.7c0-0.2,0.2-0.3,0.4-0.4c0.2-0.2,0.4-0.3,0.5-0.3c0.1,0,0.2,0,0.2,0.1c0,0,0,0.2,0,0.5c0,0.1,0.1,0.2,0.2,0.4
		c0.2-0.3,0.3-0.4,0.4-0.4l0.3-0.2c0.2-0.2,0.3-0.3,0.4-0.3c0.1,0,0.1,0.1,0.2,0.2c0.3-0.2,0.6-0.3,0.9-0.3c0.1,0,0.1,0,0.1,0l0.2,0
		c0.2-0.1,0.3-0.1,0.4-0.1c0.1,0,0.2,0,0.4,0.1c0.1,0,0.3,0.1,0.4,0.1c0.1,0.1,0.1,0.1,0.2,0.1l0.2,0c0.1,0,0.3,0.2,0.5,0.4
		c0.1,0.2,0.2,0.6,0.2,1.1c-0.1,0-0.3,0-0.4,0.1s-0.2,0.1-0.2,0.1c0,0,0.2,0.1,0.5,0.3c0,0,0.1,0.1,0.1,0.2c0,0.1,0,0.2-0.1,0.5
		c0,0,0,0,0,0c0,0.1,0.1,0.1,0.2,0.3c0,0.1,0,0.2,0,0.3c0,0.1,0,0.2,0.1,0.4l0,0.4l0,0.4l0,0.3c0,0.1,0,0.1,0.1,0.3
		c-0.1,0.1-0.2,0.2-0.3,0.2c0,0-0.1,0.1-0.4,0.1c0,0-0.2,0.1-0.3,0.2c-0.1-0.2-0.2-0.3-0.2-0.4c0,0,0-0.2,0.1-0.6c0,0,0-0.1,0-0.2
		c0,0,0-0.1,0-0.1l0.2-0.1c0.3,0,0.4-0.1,0.4-0.1l-0.1-0.1c-0.1-0.1-0.3-0.1-0.6-0.2c0-0.2,0.1-0.4,0.1-0.4l0.2-0.2
		c0.1-0.1,0.2-0.2,0.2-0.3c0,0-0.2-0.1-0.5-0.2l0-0.3l0-0.4c0,0,0,0,0-0.1c0-0.1,0-0.1,0.1-0.2c-0.1-0.1-0.1-0.2-0.1-0.2l0-0.4
		c0-0.1,0-0.1-0.1-0.2s-0.1-0.2-0.1-0.3l0,0c-0.1,0-0.2-0.1-0.2-0.1l-0.2-0.4c0-0.1-0.1-0.1-0.1-0.1c-0.1,0-0.2,0.1-0.3,0.2
		c-0.2,0.2-0.4,0.3-0.5,0.3c0,0-0.1,0-0.3-0.1l-0.1,0.1v0c-0.1-0.3-0.2-0.4-0.3-0.4c0,0,0,0-0.1,0c-0.1,0-0.2,0.1-0.2,0.1
		c-0.1,0-0.3,0.1-0.4,0.2c-0.3,0.1-0.4,0.2-0.4,0.3c-0.1,0.1-0.1,0.2-0.1,0.4c0,0,0,0.2,0,0.5v0v0c0,0.1,0,0.2-0.1,0.2l-0.4,0.3
		c0,0-0.1,0.1-0.1,0.1c0,0.1,0,0.1,0.1,0.2c0.2,0.1,0.3,0.2,0.4,0.2c0,0,0,0.1,0,0.1c0,0,0,0.1,0,0.2l0,0.6c0,0,0,0.1-0.1,0.2
		c0,0,0,0,0,0.1c0,0.1,0.1,0.2,0.2,0.3l0,0c0,0.1,0,0.2,0,0.3c0,0.3,0.1,0.5,0.1,0.7c-0.1,0.1-0.1,0.2-0.2,0.2c0,0-0.1,0-0.3,0
		c0,0-0.1,0-0.1,0c-0.1,0-0.1,0-0.1,0c0,0-0.1,0-0.1,0.1c0,0.1-0.1,0.1-0.2,0.1c0,0-0.1,0-0.1-0.1c0,0-0.1-0.1-0.1-0.1
		c0,0,0-0.1,0-0.1c0-0.2,0.1-0.2,0.1-0.3l0-0.6c0-0.2,0.1-0.2,0.1-0.3c0-0.1,0-0.1,0-0.2c0-0.1,0-0.2,0-0.2c0,0,0-0.1,0-0.2
		c0-0.1,0-0.1,0-0.1c0-0.1,0-0.2,0-0.3c0-0.1,0-0.1,0-0.2c0-0.1,0-0.2,0.1-0.3l0.2-0.1c0,0,0-0.1-0.1-0.1c0,0-0.1,0-0.3,0
		c0-0.1,0-0.2,0-0.2c0,0,0-0.1,0-0.2c0,0,0-0.1,0-0.1c0-0.1,0-0.3-0.1-0.7l0.2-0.1c-0.1-0.1-0.2-0.2-0.2-0.3c0,0,0-0.1,0-0.2
		C153.4,104.9,153.3,104.8,153.2,104.7z"/>
	<path d="M161,104.4c0-0.2,0.1-0.3,0.2-0.3h0l0.4,0h0c0.3,0,0.5-0.1,0.5-0.1c0-0.1,0-0.2,0-0.2c0-0.5,0-0.9,0-1.2
		c0-0.1,0-0.3-0.1-0.4l-0.1-0.2c0,0,0-0.1,0-0.1c0-0.1,0.1-0.2,0.2-0.3c0.2-0.2,0.4-0.3,0.7-0.4c0.1-0.1,0.1-0.2,0.2-0.2
		c0,0,0.1,0,0.1,0c0.1,0.1,0.1,0.2,0.1,0.3c0,0,0,0.4-0.1,1.2c-0.1,0.2-0.1,0.3-0.1,0.4c0,0.1-0.1,0.1-0.2,0.2c0,0.1,0,0.2,0,0.3
		h0.2l0,0.4c0.1,0,0.4,0.1,0.8,0.2c0,0,0.1,0,0.3,0c0.1,0,0.2,0,0.5-0.1l0.5,0c0.3-0.1,0.4-0.2,0.5-0.2c0.1,0,0.2,0,0.3,0
		c0,0.1,0,0.3,0,0.3c0,0.1-0.2,0.2-0.5,0.4c-0.1,0-0.1,0.1-0.2,0.1c-0.1,0.1-0.1,0.1-0.1,0.1c0,0-0.1,0-0.2,0c-0.1,0-0.1,0-0.2,0
		l-0.3-0.2l-0.2,0l-0.2-0.2l-0.4,0.3l-0.3,0c0,0-0.1,0-0.2,0.1c0,0.3,0.1,0.5,0.1,0.6c0,0.1,0,0.2,0,0.4c-0.2,0-0.3,0.1-0.3,0.2
		c0,0,0,0.1,0,0.2c0.1,0,0.2,0,0.3,0l0,1c-0.1,0-0.1,0-0.2,0c-0.1,0-0.1,0-0.1,0.1c0,0.1,0,0.1,0.1,0.2c0.1,0,0.1-0.1,0.2-0.1
		c0.1,0,0.1,0,0.1,0.1l0,0.3v0c0,0.2,0,0.4,0,0.5c0,0.1,0,0.2,0.1,0.3l0.1,0.2c0,0,0,0.1,0,0.1c0,0,0,0.1,0,0.2
		c0.2,0.1,0.3,0.1,0.5,0.1c0.2,0,0.3,0,0.5-0.1c0.1-0.1,0.2-0.1,0.2-0.1l0.4-0.4c0.2-0.2,0.3-0.3,0.4-0.3s0.1,0,0.2,0.1
		c0,0.1,0,0.2,0,0.2c0,0.3-0.1,0.4-0.1,0.5s-0.2,0.1-0.5,0.2c-0.2,0.1-0.5,0.2-1,0.4l-0.3,0.1c-0.2,0.1-0.3,0.1-0.3,0.1
		c0,0-0.1,0-0.2-0.1l-0.1,0L163,110c-0.1,0-0.1,0-0.2,0c-0.1,0-0.3-0.1-0.5-0.3c-0.1-0.1-0.2-0.2-0.2-0.3c0,0,0-0.1-0.1-0.2
		c-0.1-0.2-0.1-0.3-0.1-0.3c0,0,0-0.1,0-0.2c0-0.1,0-0.3,0-0.5c0-0.2,0.1-0.3,0.1-0.4c0-0.1,0-0.2,0-0.4c0-0.2,0-0.7,0-1.4
		c0.1-0.1,0.2-0.2,0.2-0.2c0,0,0-0.1,0-0.1l-0.2-0.1l0-0.1v0c0,0,0-0.1,0-0.2c0-0.1,0-0.4,0-0.7c-0.2,0-0.4-0.1-0.5-0.1
		c0,0-0.2,0-0.4,0l-0.2,0c-0.1,0-0.2,0.1-0.2,0.1c-0.1,0-0.1,0-0.1-0.1C160.7,104.6,160.8,104.5,161,104.4z"/>
	<path d="M168.2,106.6l-0.2,0.1c0,0.1,0.1,0.2,0.1,0.3c0,0.1,0,0.1,0,0.1c0,0,0,0.1,0,0.2c0,0.1,0,0.3,0,0.6c0,0,0,0.1,0.1,0.3
		l0,0.3l0,0.3c0,0.3,0.1,0.5,0.3,0.6c0.1,0,0.3,0.1,0.8,0.3c0.2,0.1,0.3,0.1,0.4,0.1c0.3,0,0.4,0,0.5-0.1l0.3-0.3
		c0,0,0.1-0.1,0.2-0.1c0.1,0.1,0.2,0.1,0.2,0.1c0,0,0.1,0,0.1,0c0.1-0.1,0.1-0.2,0.1-0.2c0,0,0.1-0.1,0.2-0.1c0,0,0.1-0.2,0.3-0.4
		c0.2-0.1,0.2-0.2,0.2-0.2c0,0,0.1-0.1,0.1-0.3c0-0.1,0.1-0.2,0.1-0.3v0c0-0.1,0-0.2,0-0.2v0c0,0,0-0.1,0.1-0.3L172,107l0-0.1v-1.1
		c0-0.1,0-0.3-0.1-0.6c0,0,0,0,0,0c0-0.1,0.1-0.2,0.2-0.3c0-0.1,0-0.1-0.1-0.1l-0.1,0c0,0,0-0.1,0-0.2c0,0,0,0,0-0.1
		c0-0.1,0-0.2,0-0.3c0.1,0,0.1,0,0.2,0c0.1,0,0.2-0.1,0.5-0.2c0.1,0,0.2-0.1,0.3-0.1c0.1,0.3,0.1,0.4,0.1,0.5l-0.1,0.9v0.5
		c0,0.4-0.1,0.6-0.1,0.7l-0.2-0.1c-0.1,0.1-0.1,0.2-0.1,0.3c0,0,0,0.1,0,0.1l0.3,0c0,0.1,0,0.2,0,0.2l0,0.2v0.1v0.3v0.1
		c0,0.2,0,0.4-0.1,0.6c0.1,0.1,0.1,0.1,0.1,0.2c0,0,0,0.2,0,0.4c0,0.1,0,0.2,0.1,0.3c0,0,0.1,0.1,0.2,0.1c0,0.1-0.1,0.1-0.1,0.2
		c0,0-0.2,0.1-0.4,0.2c-0.2,0.1-0.4,0.2-0.4,0.2c-0.1,0-0.1,0-0.1-0.1c-0.1-0.1-0.1-0.2-0.1-0.3c0-0.1,0-0.1,0-0.2
		c-0.1,0-0.2,0-0.3,0c0,0-0.1,0-0.1,0c0,0-0.1,0.1-0.2,0.2l-0.2,0.1l-0.3,0.1l-0.2,0.1c-0.3,0.2-0.7,0.3-1,0.3
		c-0.2,0.1-0.3,0.1-0.3,0.1c0,0-0.1,0-0.3-0.1c0,0,0,0,0,0c0,0-0.1,0-0.3,0.1l-0.2-0.3l0,0c0,0-0.1,0-0.3,0.1c0,0-0.1,0-0.1,0
		c-0.1,0-0.2-0.1-0.5-0.2c-0.1-0.1-0.2-0.2-0.3-0.3c-0.1-0.2-0.2-0.4-0.2-0.5c0-0.1,0-0.1,0.1-0.2l-0.2-0.1v-0.9
		c0.1-0.1,0.2-0.2,0.2-0.3c0,0,0-0.1-0.1-0.3v-0.5l0-0.4c0-0.1,0-0.1,0.1-0.2v-0.1l-0.2,0.1c0-0.3,0-0.5,0-0.6c0-0.1,0-0.2,0-0.2
		l0-0.2c0-0.1,0-0.2,0-0.3l-0.1-0.2c0-0.1,0.1-0.1,0.2-0.1c0.1,0,0.3-0.1,0.5-0.2l0.1,0c0.1-0.1,0.2-0.1,0.2-0.1
		c0.1,0,0.1,0,0.1,0.1c0,0,0.1,0.1,0.1,0.3c0,0,0,0.1-0.1,0.2c0,0.1-0.1,0.3-0.1,0.6c0,0.1,0,0.2,0,0.4c-0.1,0.3-0.1,0.5-0.1,0.5
		C168,106.1,168.1,106.3,168.2,106.6z"/>
	<path d="M175.2,104.6c0-0.1,0.1-0.2,0.1-0.3c0.1-0.1,0.2-0.1,0.4-0.2c0.2-0.1,0.4-0.2,0.4-0.2c0.1,0,0.2,0,0.2,0.1l0,0.1l0.1,0.2
		c0,0.1,0,0.1,0,0.1c0,0,0,0.1,0.1,0.2c0.1,0,0.2-0.1,0.4-0.2l0.3-0.1l0.3-0.2l0.2-0.1c0.1-0.1,0.2-0.1,0.2-0.1l0.2,0c0,0,0,0,0,0
		c0,0,0.2-0.1,0.5-0.2c0,0,0.1,0,0.2,0c0.1,0,0.2,0,0.2,0c0,0,0.1,0.1,0.2,0.2c0.1,0,0.1,0,0.1,0s0.1,0,0.2-0.1c0,0,0,0,0,0
		c0.1,0,0.1,0,0.2,0.1c0.1,0.1,0.1,0.2,0.2,0.3c-0.1,0.1-0.2,0.2-0.5,0.4c-0.1,0.1-0.2,0.2-0.3,0.2c-0.1,0-0.2-0.1-0.3-0.3
		c-0.1,0-0.2,0-0.2,0c-0.1,0-0.2,0-0.3-0.1c-0.1,0-0.3-0.1-0.4-0.1c-0.1,0.1-0.1,0.2-0.3,0.2c-0.1,0-0.2,0-0.3,0l-0.3,0.1
		c0,0-0.1,0-0.1-0.1c-0.1,0.1-0.3,0.2-0.5,0.4c-0.2,0.1-0.2,0.3-0.2,0.6v0c0,0.1,0,0.1,0,0.3c0,0.1,0,0.2,0,0.2
		c0,0.1-0.1,0.1-0.2,0.3c0.1,0.1,0.1,0.2,0.1,0.2c0,0,0,0.1,0,0.1l0.1,0l0,0.2l0,1.4l0,0.1l-0.2,0.1c-0.3,0.1-0.4,0.1-0.4,0.1
		s0.2,0.1,0.5,0.1l0.1,0c0.1,0.2,0.1,0.3,0.1,0.4c0,0.1-0.1,0.2-0.2,0.3c0,0-0.2,0.1-0.4,0.1c0,0-0.2,0.1-0.3,0.2c0,0-0.1,0-0.1,0
		c-0.1,0-0.2-0.1-0.2-0.2c0,0,0-0.2,0.1-0.4c0,0,0-0.1,0-0.1c0,0,0-0.1,0-0.4c0,0,0-0.1,0-0.1l0.2-0.1c0,0,0-0.1,0-0.1
		c0-0.1,0-0.1-0.1-0.2c0-0.1,0-0.1,0-0.2c0,0,0-0.2,0-0.4c0-0.2,0-0.3,0-0.4c0.2-0.1,0.3-0.2,0.3-0.3c0,0,0-0.1,0-0.1
		c-0.1,0-0.1,0-0.2,0c0,0-0.1,0-0.1-0.1c0-0.1,0-0.2,0-0.3v-0.2v-0.2v-0.1c0,0,0-0.1,0-0.1c0-0.1,0-0.1,0-0.1c0-0.1,0-0.2,0.1-0.3
		c-0.1-0.1-0.1-0.1-0.1-0.1c0,0,0-0.2,0-0.5C175.4,104.8,175.3,104.7,175.2,104.6z"/>
	<path d="M185.1,104.1l0.3-0.2c0.1,0.1,0.1,0.2,0.2,0.2c0,0,0.1,0,0.2,0.1c0.1,0,0.3,0.2,0.7,0.7c0.1,0.1,0.2,0.3,0.3,0.4
		c0,0.1,0.1,0.2,0.1,0.4c0,0.1,0.1,0.2,0.1,0.3l-0.1,0.1c-0.1,0-0.1,0-0.2-0.1l-0.3,0.1l-0.3,0l-0.2,0.1c-0.3-0.2-0.5-0.3-0.5-0.3
		c0,0-0.2,0.1-0.4,0.3c-0.3-0.1-0.5-0.1-0.5-0.1c-0.1,0-0.2,0-0.3,0l0,0c-0.1,0-0.3,0-0.7,0l-0.3,0l-0.4,0l-0.4,0.1l-0.3,0
		c-0.3,0.1-0.5,0.1-0.6,0.2c0,0.2-0.1,0.3-0.1,0.4c0,0.1-0.1,0.2-0.2,0.3c0.2,0.1,0.3,0.2,0.3,0.2c0.1,0.3,0.1,0.6,0.1,0.7l0.1,0.1
		l0,0.3l0.2,0.1c0.1,0.2,0.1,0.4,0.2,0.4c0.1,0.1,0.2,0.1,0.4,0.1c0,0.2,0.1,0.3,0.1,0.3c0,0,0.1,0.1,0.3,0.1l0.1,0.2
		c0.1,0,0.1,0,0.1,0c0,0,0.2,0.1,0.5,0.2c0.1,0,0.1,0,0.2,0c0.1,0,0.2,0,0.4-0.1l0.5-0.1l0.4-0.1c0.2,0,0.3,0,0.4,0
		c0.1,0,0.3-0.1,0.5-0.3c0.2-0.1,0.4-0.2,0.4-0.3c0.1-0.1,0.2-0.2,0.3-0.4c0-0.1,0.1-0.1,0.2-0.1c0,0,0.1,0,0.2,0.1
		c0,0.2-0.1,0.3-0.1,0.4c-0.2,0.4-0.4,0.6-0.4,0.7c-0.1,0-0.1,0-0.2,0c0,0-0.1,0.1-0.3,0.2c-0.1,0.1-0.2,0.1-0.4,0.1
		c-0.3,0.1-0.5,0.1-0.7,0.2c-0.2,0-0.3,0-0.4,0.1c-0.2,0.1-0.2,0.1-0.3,0.1l-0.5-0.1l-0.3,0l-0.1,0c-0.1,0-0.2,0-0.3,0
		s-0.3,0-0.6-0.1l-0.1,0l-0.2-0.1c-0.4-0.1-0.6-0.2-0.6-0.2c0,0-0.1-0.1-0.3-0.2c0,0-0.1-0.1-0.3-0.2c-0.1-0.1-0.2-0.2-0.2-0.2
		l-0.1-0.3c0,0-0.1-0.1-0.3-0.3c0.1-0.1,0.1-0.1,0.1-0.2c0,0-0.1-0.2-0.2-0.4c0-0.1-0.1-0.3-0.1-0.7c0-0.1,0-0.3,0.1-0.6
		c0.1-0.2,0.1-0.3,0.1-0.4l0.3-0.3l0.2-0.4c0.2-0.2,0.4-0.4,0.6-0.6l0.6-0.4l0.6-0.4l0.2,0l0.6-0.2l0.4,0c0.3-0.1,0.5-0.2,0.5-0.2
		C184.8,103.7,185,103.9,185.1,104.1z M184.2,105.3l0.1,0.2c0.1,0,0.2,0,0.2,0c0.1,0,0.3-0.1,0.4-0.1l0.4,0c0,0,0,0,0-0.1
		c0,0,0-0.1,0-0.1c0,0,0-0.1-0.1-0.2c0,0,0,0-0.1-0.1c-0.1-0.2-0.2-0.2-0.2-0.2l-0.3-0.1c0,0-0.1-0.1-0.1-0.2c-0.2,0-0.4,0-0.8,0
		l-0.2,0l-0.3,0.2c0,0-0.2,0-0.4,0.1c-0.2,0.1-0.4,0.2-0.6,0.2c0,0-0.1,0.1-0.3,0.3c0,0-0.1,0.1-0.2,0.1v0l0,0l0.6,0.2l0.2,0.2
		l0.3-0.4c0,0,0.1,0,0.1,0c0,0,0.1,0,0.4,0.1c0,0,0,0,0,0c0.1,0,0.2,0,0.4-0.1C184,105.3,184.1,105.3,184.2,105.3z"/>
	<path d="M192.8,107l-0.2,0.1c-0.2-0.1-0.4-0.1-0.5-0.1c-0.1,0-0.3,0-0.5,0c-0.1-0.1-0.1-0.2-0.2-0.3l-0.1,0.2c-0.1,0-0.2,0-0.4,0.1
		c-0.1,0-0.1,0-0.2,0c0,0,0,0,0,0l-0.3-0.1c0,0,0,0,0,0l-0.1-0.2c-0.1,0-0.2,0.1-0.2,0.1c0,0-0.1,0-0.2-0.1c0,0-0.1,0-0.1-0.1
		c-0.4-0.1-0.6-0.4-0.6-0.7c0-0.3,0.1-0.5,0.3-0.8c0.1-0.1,0.2-0.2,0.4-0.4l0.2-0.1l0.4-0.2c0.4-0.2,0.7-0.4,0.8-0.5
		c0.4-0.2,0.7-0.3,1-0.3c0,0,0.3,0.1,0.7,0.2l0.4-0.1c0.3,0,0.4,0,0.4,0.1c0.1,0.1,0.2,0.1,0.2,0.2s0,0.1-0.1,0.2
		c0,0-0.1,0.1-0.4,0.2c-0.3,0.2-0.4,0.2-0.4,0.2c-0.3,0-0.6,0-0.7-0.1c-0.1-0.1-0.1-0.2-0.2-0.3h0l-0.1,0.2c-0.1,0-0.2,0-0.2,0
		c0,0-0.1,0-0.1,0c-0.1,0-0.1,0-0.1,0c0,0-0.1,0-0.2,0c0,0-0.1,0-0.2,0c-0.1,0.1-0.3,0.2-0.5,0.3c-0.1,0.1-0.2,0.2-0.3,0.3
		s-0.1,0.3-0.1,0.4c0,0.1,0,0.1,0.1,0.2c0,0,0.1,0.1,0.3,0.1c0.1,0,0.2,0.1,0.3,0.2c0,0,0,0.1,0,0.1c0,0.1,0,0.2,0.1,0.2
		c0.1,0,0.2-0.1,0.3-0.2c0.1,0,0.2,0,0.3,0c0,0,0.2,0,0.4-0.1l0.3,0c0.2,0,0.4,0,0.4,0c0,0,0.2,0,0.4,0.1l0.3,0l0.3,0.2
		c0.3,0.1,0.5,0.3,0.6,0.4c0.1,0.1,0.1,0.2,0.1,0.3l0.1,0.3c0.1,0.3,0.1,0.5,0.1,0.5c0,0,0,0.1,0,0.3c0,0.3-0.1,0.5-0.3,0.5
		c-0.1,0-0.1,0-0.2,0c-0.1,0.3-0.1,0.4-0.2,0.4c-0.2,0.3-0.4,0.5-0.5,0.5c-0.3,0-0.5,0.1-0.7,0.2c-0.1,0.1-0.1,0.1-0.1,0.1
		s-0.1,0-0.2,0l-0.6,0.2c-0.2,0-0.3-0.1-0.3-0.1c0,0-0.2,0-0.5,0.1l-0.2,0c-0.3,0-0.4,0-0.6-0.1c-0.3-0.1-0.4-0.1-0.4-0.1l-0.3-0.2
		c-0.3-0.2-0.5-0.3-0.6-0.4c-0.2-0.2-0.2-0.4-0.2-0.5c0,0,0.1-0.1,0.2-0.2l0.2-0.2c0.2-0.1,0.3-0.2,0.3-0.2c0,0,0,0,0.1,0
		c0.1,0.1,0.2,0.2,0.2,0.4l0,0.3v0c0,0,0,0.1,0,0.1c0,0,0.1,0.1,0.3,0.2c0,0,0.1,0.1,0.1,0.1c0.1,0.1,0.2,0.2,0.2,0.2l0.3,0.1
		l0.3,0.1h0.3l0.2,0c0.2-0.1,0.4-0.1,0.5-0.1c0.1,0,0.3,0,0.3-0.1l0.3-0.1c0.2-0.1,0.3-0.1,0.3-0.1c0.1-0.1,0.2-0.3,0.4-0.5
		c0.2-0.3,0.3-0.6,0.3-0.9c0-0.1,0-0.2-0.1-0.2C193,107.3,192.9,107.1,192.8,107z"/>
</g>
</svg>
